#N canvas 229 134 455 400 10;
#X obj 286 115 tgl 15 0 empty empty empty 17 7 0 10 -262144 -1 -1 0
1;
#X msg 286 135 \; pd dsp \$1;
#X obj 32 308 dac~ 1 2;
#X obj 31 47 osc~ 220;
#X msg 200 136 compile;
#X obj 31 242 ../external/faustgen~ passive, f 16;
#X msg 51 148 gain1;
#X msg 122 188 gain2;
#X obj 124 282 print;
#X msg 206 166 print;
#X msg 51 118 gain3;
#X msg 121 158 gain4;
#X connect 0 0 1 0;
#X connect 3 0 5 0;
#X connect 4 0 5 0;
#X connect 5 0 2 0;
#X connect 5 0 2 1;
#X connect 5 1 8 0;
#X connect 6 0 5 0;
#X connect 7 0 5 0;
#X connect 9 0 5 0;
#X connect 10 0 5 0;
#X connect 11 0 5 0;
