#N canvas 229 134 455 400 10;
#X obj 286 115 tgl 15 0 empty empty empty 17 7 0 10 -262144 -1 -1 1
1;
#X msg 286 135 \; pd dsp \$1;
#X obj 32 308 dac~ 1 2;
#X obj 51 129 nbx 5 14 0 1 0 0 empty empty empty 0 -8 0 10 -262144
-1 -1 0.95 256;
#X obj 31 242 ../external/faustgen~ recompile, f 16;
#X obj 199 40 tgl 15 0 empty empty empty 17 7 0 10 -262144 -1 -1 1
1;
#X msg 199 69 autocompile \$1 100;
#X obj 199 19 loadbang;
#X obj 31 47 osc~ 220;
#X msg 51 148 gain1 \$1;
#X obj 122 169 nbx 5 14 0 1 0 0 empty empty empty 0 -8 0 10 -262144
-1 -1 0.7 256;
#X msg 122 188 gain2 \$1;
#X msg 200 136 compile;
#X connect 0 0 1 0;
#X connect 3 0 9 0;
#X connect 4 0 2 0;
#X connect 4 1 2 1;
#X connect 5 0 6 0;
#X connect 6 0 4 0;
#X connect 7 0 5 0;
#X connect 8 0 4 0;
#X connect 9 0 4 0;
#X connect 10 0 11 0;
#X connect 11 0 4 0;
#X connect 12 0 4 0;
